<mxfile host="app.diagrams.net" modified="2023-11-14T00:47:22.975Z" agent="Mozilla/5.0 (Windows NT 10.0; Win64; x64) AppleWebKit/537.36 (KHTML, like Gecko) Chrome/119.0.0.0 Safari/537.36" etag="nSOjuYGbzd1xr2hMTx6N" version="22.1.0" type="github">
  <diagram name="Page-1" id="b7a7eaba-c6c5-6fbe-34ae-1d3a4219ac39">
    <mxGraphModel dx="1615" dy="822" grid="1" gridSize="10" guides="1" tooltips="1" connect="1" arrows="1" fold="1" page="1" pageScale="1.5" pageWidth="1169" pageHeight="826" background="#ffffff" math="0" shadow="1">
      <root>
        <mxCell id="0" style=";html=1;" />
        <mxCell id="1" style=";html=1;" parent="0" />
        <mxCell id="279d4c6e8b4f5ae2-4" value="" style="html=1;shadow=0;dashed=0;align=center;verticalAlign=middle;shape=mxgraph.arrows2.arrow;dy=0.5;dx=15;direction=east;notch=0;rounded=0;strokeWidth=1;fontSize=20;rotation=40;labelBackgroundColor=none;fillColor=#dae8fc;strokeColor=#6c8ebf;labelBorderColor=none;" parent="1" vertex="1">
          <mxGeometry x="860" y="599.53" width="240" height="50.47" as="geometry" />
        </mxCell>
        <mxCell id="279d4c6e8b4f5ae2-5" value="" style="html=1;shadow=0;dashed=0;align=center;verticalAlign=middle;shape=mxgraph.arrows2.arrow;dy=0.5;dx=15;direction=east;notch=0;rounded=0;strokeWidth=1;fontSize=20;rotation=90;labelBackgroundColor=none;fillColor=#e1d5e7;strokeColor=#9673a6;labelBorderColor=none;" parent="1" vertex="1">
          <mxGeometry x="943.52" y="830.09" width="284.82" height="52.63" as="geometry" />
        </mxCell>
        <mxCell id="279d4c6e8b4f5ae2-8" value="" style="html=1;shadow=0;dashed=0;align=center;verticalAlign=middle;shape=mxgraph.arrows2.arrow;dy=0.5;dx=15;direction=east;notch=0;rounded=0;strokeWidth=1;fontSize=20;rotation=140;labelBackgroundColor=none;fillColor=#f8cecc;strokeColor=#b85450;labelBorderColor=none;" parent="1" vertex="1">
          <mxGeometry x="1079.64" y="599.53" width="250" height="50" as="geometry" />
        </mxCell>
        <mxCell id="279d4c6e8b4f5ae2-10" value="Branche Fonctionnelle" style="rounded=0;whiteSpace=wrap;html=1;shadow=0;strokeWidth=2;fontSize=20;verticalAlign=middle;direction=west;labelBackgroundColor=none;fillColor=#dae8fc;strokeColor=#6c8ebf;" parent="1" vertex="1">
          <mxGeometry x="690" y="450" width="250" height="60" as="geometry" />
        </mxCell>
        <mxCell id="279d4c6e8b4f5ae2-11" value="Branche de Réalisation" style="rounded=0;html=1;shadow=0;strokeWidth=2;fontSize=20;verticalAlign=middle;direction=west;labelBackgroundColor=none;fillColor=#e1d5e7;strokeColor=#9673a6;labelBorderColor=none;" parent="1" vertex="1">
          <mxGeometry x="970.9300000000001" y="1030" width="230" height="60" as="geometry" />
        </mxCell>
        <mxCell id="279d4c6e8b4f5ae2-14" value="Branche Technique" style="rounded=0;whiteSpace=wrap;html=1;shadow=0;strokeWidth=2;fontSize=20;verticalAlign=middle;direction=west;labelBackgroundColor=none;fillColor=#f8cecc;strokeColor=#b85450;" parent="1" vertex="1">
          <mxGeometry x="1270" y="450" width="250" height="60" as="geometry" />
        </mxCell>
        <mxCell id="279d4c6e8b4f5ae2-15" value="Conception,&amp;nbsp;implémentation, &lt;br&gt;test, déploiement" style="ellipse;html=1;rounded=0;shadow=0;strokeWidth=2;fontSize=20;verticalAlign=middle;direction=west;labelBackgroundColor=none;fillColor=#e1d5e7;strokeColor=#9673a6;labelBorderColor=none;" parent="1" vertex="1">
          <mxGeometry x="1130" y="796.41" width="290" height="120" as="geometry" />
        </mxCell>
        <mxCell id="279d4c6e8b4f5ae2-16" value="&lt;p style=&quot;margin-top: 0pt; margin-bottom: 0pt; margin-left: 0in; text-align: left; direction: ltr; unicode-bidi: embed; word-break: normal; font-size: 22px;&quot;&gt;&lt;font style=&quot;font-size: 22px;&quot; face=&quot;Times New Roman&quot;&gt;Pipeline ci/cd, sécurité, cloud, test,&amp;nbsp;&lt;span style=&quot;&quot;&gt;build&lt;/span&gt;&lt;span style=&quot;&quot;&gt;,&lt;br&gt;conteneurisation, orchestration, temp et cout&lt;/span&gt;&lt;/font&gt;&lt;/p&gt;" style="html=1;shadow=0;dashed=0;align=center;verticalAlign=middle;shape=mxgraph.arrows2.arrow;dy=0.5;dx=15;direction=north;notch=0;rounded=0;strokeWidth=1;fontSize=20;rotation=90;horizontal=0;labelPosition=left;verticalLabelPosition=middle;spacingTop=-25;labelBackgroundColor=none;fillColor=#dae8fc;strokeColor=#6c8ebf;labelBorderColor=none;" parent="1" vertex="1">
          <mxGeometry x="696.25" y="458.75" width="20" height="397.5" as="geometry" />
        </mxCell>
        <mxCell id="279d4c6e8b4f5ae2-17" value="Docker, github,github actions, rubocop,dockerhub,&lt;br&gt;helm chart, kubernetes, emqx, ruby on rails, influxdb&lt;br&gt;" style="html=1;shadow=0;dashed=0;align=center;verticalAlign=middle;shape=mxgraph.arrows2.arrow;dy=0.5;dx=15;direction=south;notch=0;rounded=0;strokeWidth=1;rotation=90;horizontal=0;labelPosition=left;verticalLabelPosition=middle;spacing=2;fontSize=20;spacingTop=-30;labelBackgroundColor=none;fillColor=#f8cecc;strokeColor=#b85450;labelBorderColor=none;" parent="1" vertex="1">
          <mxGeometry x="1470" y="450" width="22.5" height="415" as="geometry" />
        </mxCell>
      </root>
    </mxGraphModel>
  </diagram>
</mxfile>
